HIERARCHY
ROOT Hips
{
	OFFSET 0.000000 0.000000 0.000000
	CHANNELS 6 Xposition Yposition Zposition Zrotation Yrotation Xrotation 
	JOINT LeftUpLeg_virtual
	{
		OFFSET 0.000000 0.000000 0.000000
		CHANNELS 3 Zrotation Yrotation Xrotation
		JOINT LeftUpLeg
		{
			OFFSET 10.205400 -3.823500 0.155100
			CHANNELS 3 Zrotation Yrotation Xrotation
			JOINT LeftLeg
			{
				OFFSET 0.708757 -12.982077 0.567790
				CHANNELS 3 Zrotation Yrotation Xrotation
				JOINT LeftFoot
				{
					OFFSET -0.708756 -10.717838 -2.184338
					CHANNELS 3 Zrotation Yrotation Xrotation
					JOINT LeftToeBase
					{
						OFFSET 0.108149 -7.191104 7.560241
						CHANNELS 3 Zrotation Yrotation Xrotation
						End Site
						{
							OFFSET 0.000000 0.000000 0.000000
						}
					}
				}
			}
		}
	}
	JOINT RightUpLeg_virtual
	{
		OFFSET 0.000000 0.000000 0.000000
		CHANNELS 3 Zrotation Yrotation Xrotation
		JOINT RightUpLeg
		{
			OFFSET -10.205400 -3.823500 0.005500
			CHANNELS 3 Zrotation Yrotation Xrotation
			JOINT RightLeg
			{
				OFFSET -0.708756 -12.982134 0.610632
				CHANNELS 3 Zrotation Yrotation Xrotation
				JOINT RightFoot
				{
					OFFSET 0.708754 -10.717769 -1.945823
					CHANNELS 3 Zrotation Yrotation Xrotation
					JOINT RightToeBase
					{
						OFFSET -0.108140 -7.191069 7.372968
						CHANNELS 3 Zrotation Yrotation Xrotation
						End Site
						{
							OFFSET 0.000000 0.000000 0.000000
						}
					}
				}
			}
		}
	}
	JOINT Spine_virtual
	{
		OFFSET 0.000000 0.000000 0.000000
		CHANNELS 3 Zrotation Yrotation Xrotation
		JOINT Spine
		{
			OFFSET 0.000000 6.876099 0.125700
			CHANNELS 3 Zrotation Yrotation Xrotation
			JOINT Spine1
			{
				OFFSET 0.000000 8.022060 0.146608
				CHANNELS 3 Zrotation Yrotation Xrotation
				JOINT Spine2
				{
					OFFSET 0.000000 9.168068 0.167552
					CHANNELS 3 Zrotation Yrotation Xrotation
					JOINT Neck_virtual
					{
						OFFSET 0.000000 0.000000 0.000000
						CHANNELS 3 Zrotation Yrotation Xrotation
						JOINT Neck
						{
							OFFSET 0.000000 10.314075 0.188496
							CHANNELS 3 Zrotation Yrotation Xrotation
							JOINT Head
							{
								OFFSET 0.000000 7.643700 -2.377400
								CHANNELS 3 Zrotation Yrotation Xrotation
								End Site
								{
									OFFSET 0.000000 0.000000 0.000000
								}
							}
						}
					}
					JOINT LeftShoulder_virtual
					{
						OFFSET 0.000000 0.000000 0.000000
						CHANNELS 3 Zrotation Yrotation Xrotation
						JOINT LeftShoulder
						{
							OFFSET 4.392200 8.824978 0.174984
							CHANNELS 3 Zrotation Yrotation Xrotation
							JOINT LeftArm
							{
								OFFSET 8.771219 -2.981674 -0.026999
								CHANNELS 3 Zrotation Yrotation Xrotation
								JOINT LeftForeArm
								{
									OFFSET 8.512804 0.000000 -0.000000
									CHANNELS 3 Zrotation Yrotation Xrotation
									JOINT LeftHand
									{
										OFFSET 18.484802 0.000000 -0.000000
										CHANNELS 3 Zrotation Yrotation Xrotation
										End Site
										{
											OFFSET 0.000000 0.000000 0.000000
										}
									}
								}
							}
						}
					}
					JOINT RightShoulder_virtual
					{
						OFFSET 0.000000 0.000000 0.000000
						CHANNELS 3 Zrotation Yrotation Xrotation
						JOINT RightShoulder
						{
							OFFSET -4.392200 8.824993 0.141379
							CHANNELS 3 Zrotation Yrotation Xrotation
							JOINT RightArm
							{
								OFFSET -8.771282 -2.981682 -0.094208
								CHANNELS 3 Zrotation Yrotation Xrotation
								JOINT RightForeArm
								{
									OFFSET -8.494598 0.000000 0.000000
									CHANNELS 3 Zrotation Yrotation Xrotation
									JOINT RightHand
									{
										OFFSET -18.483803 0.000000 0.000001
										CHANNELS 3 Zrotation Yrotation Xrotation
										End Site
										{
											OFFSET 0.000000 0.000000 0.000000
										}
									}
								}
							}
						}
					}
				}
			}
		}
	}
}
MOTION
Frames: 4
Frame Time: 0.033333
-2.238889 24.490133 0.049264 179.935992 -1.617908 179.906541 9.701340 -8.982967 -21.908148 -4.710768 4.625340 -55.753960 25.359965 -2.902951 74.684669 -5.866654 -6.274791 6.138460 0.000000 0.000000 0.000000 8.386428 -3.443492 -21.565298 9.998289 -3.805527 -63.196926 -6.785808 -0.773149 94.586099 -3.215106 12.657421 4.913868 0.000000 0.000000 0.000000 5.104531 -4.309878 -17.111697 1.777869 0.948926 -15.893514 -4.064137 -0.144819 19.514964 0.008931 0.001525 -0.062642 -4.423303 0.781081 23.648154 -6.453888 9.020457 26.400652 0.000000 0.000000 0.000000 -2.093480 1.184253 19.595714 -12.925286 -4.045222 0.915837 -60.564203 36.461708 -13.233971 3.369992 -83.152089 9.118520 0.000000 0.000000 0.000000 -6.056873 2.310730 19.313335 20.686491 14.519883 2.346436 49.473458 -20.780545 15.927656 -20.304016 60.064902 -15.559150 0.000000 0.000000 0.000000 
-2.313341 24.479422 0.026334 179.945760 -2.080973 179.981864 9.658499 -9.275890 -21.664749 -4.844880 4.184520 -56.535265 25.440795 -3.555623 77.047362 -5.655635 -6.220868 5.689143 0.000000 0.000000 0.000000 8.376339 -3.747708 -21.521429 9.503678 -3.935509 -63.009677 -6.821444 -0.955415 94.167449 -3.353014 12.304085 4.533319 0.000000 0.000000 0.000000 5.037970 -4.632297 -16.877006 1.810539 1.361089 -15.724164 -4.246758 -0.001265 19.436589 0.000158 0.026713 0.000848 -4.642882 0.943568 23.578148 -8.070846 9.985737 26.569781 0.000000 0.000000 0.000000 -2.252679 1.406619 19.504683 -12.560708 -4.020625 1.050632 -60.603961 36.130891 -12.615457 3.327412 -83.443629 9.167274 0.000000 0.000000 0.000000 -6.246900 2.479649 19.232102 21.202671 14.547149 2.418428 49.185968 -20.906067 15.587856 -19.781398 59.942751 -15.058084 0.000000 0.000000 0.000000 
-2.394588 24.464355 0.002936 179.965335 -2.775673 -179.934107 9.621214 -9.701158 -21.533821 -5.003801 3.763497 -57.303948 25.459817 -4.172176 79.317389 -5.505366 -6.212707 5.372377 0.000000 0.000000 0.000000 8.348678 -4.197912 -21.502609 8.777801 -3.859339 -62.634904 -7.042727 -1.063560 93.093388 -3.539339 11.981062 4.574512 0.000000 0.000000 0.000000 4.905007 -4.880115 -16.736178 1.865551 1.772718 -15.460538 -4.394251 0.127307 19.379473 0.015635 0.052818 0.005707 -4.818617 1.081448 23.592850 -9.519900 10.892750 26.722200 0.000000 0.000000 0.000000 -2.426424 1.515103 19.522094 -12.349389 -4.060020 1.171064 -60.955286 35.651962 -12.350087 3.586742 -83.544326 8.902672 0.000000 0.000000 0.000000 -6.428323 2.571776 19.189615 21.637614 14.471935 2.412090 48.831205 -21.061933 15.295893 -19.235490 59.882379 -14.793066 0.000000 0.000000 0.000000 
-2.466777 24.456858 -0.028242 -179.961401 -3.550345 -179.974624 9.605167 -10.029940 -21.383473 -5.212715 3.402194 -57.997540 25.433620 -4.777740 81.491957 -5.382041 -6.234851 5.229236 0.000000 0.000000 0.000000 8.344377 -4.633650 -21.428308 7.872181 -3.467557 -62.084077 -7.278304 -1.016509 90.960409 -3.499148 11.746100 5.539268 0.000000 0.000000 0.000000 4.765042 -4.907653 -16.542920 1.982698 2.118078 -15.168908 -4.525405 0.162514 19.364934 -0.012364 -0.049646 0.023228 -4.923617 1.165922 23.577379 -10.772125 11.835640 26.812177 0.000000 0.000000 0.000000 -2.558691 1.587593 19.469394 -12.172539 -3.910482 1.190145 -61.361156 35.194244 -12.367154 2.938844 -83.458273 9.552130 0.000000 0.000000 0.000000 -6.533113 2.723921 19.146134 21.974984 14.359766 2.358301 48.557970 -21.087514 15.016101 -18.804525 59.755891 -14.522620 0.000000 0.000000 0.000000 
